<mxfile host="app.diagrams.net" modified="2022-03-30T10:01:27.909Z" agent="5.0 (Windows NT 10.0; Win64; x64) AppleWebKit/537.36 (KHTML, like Gecko) Chrome/99.0.4844.84 Safari/537.36" etag="yt7UwzhUp97wzzeA2K06" version="17.2.6" type="github">
  <diagram id="C5RBs43oDa-KdzZeNtuy" name="Page-1">
    <mxGraphModel dx="1422" dy="705" grid="1" gridSize="10" guides="1" tooltips="1" connect="1" arrows="1" fold="1" page="1" pageScale="1" pageWidth="827" pageHeight="1169" math="0" shadow="0">
      <root>
        <mxCell id="WIyWlLk6GJQsqaUBKTNV-0" />
        <mxCell id="WIyWlLk6GJQsqaUBKTNV-1" parent="WIyWlLk6GJQsqaUBKTNV-0" />
        <mxCell id="wFdVTvilnbb7n3oCbcBA-3" value="" style="edgeStyle=orthogonalEdgeStyle;rounded=0;orthogonalLoop=1;jettySize=auto;html=1;" edge="1" parent="WIyWlLk6GJQsqaUBKTNV-1" source="WIyWlLk6GJQsqaUBKTNV-3" target="wFdVTvilnbb7n3oCbcBA-2">
          <mxGeometry relative="1" as="geometry" />
        </mxCell>
        <mxCell id="wFdVTvilnbb7n3oCbcBA-5" value="" style="edgeStyle=orthogonalEdgeStyle;rounded=0;orthogonalLoop=1;jettySize=auto;html=1;" edge="1" parent="WIyWlLk6GJQsqaUBKTNV-1" source="WIyWlLk6GJQsqaUBKTNV-3" target="wFdVTvilnbb7n3oCbcBA-4">
          <mxGeometry relative="1" as="geometry">
            <Array as="points">
              <mxPoint x="220" y="190" />
              <mxPoint x="350" y="190" />
            </Array>
          </mxGeometry>
        </mxCell>
        <mxCell id="wFdVTvilnbb7n3oCbcBA-91" style="edgeStyle=orthogonalEdgeStyle;rounded=0;orthogonalLoop=1;jettySize=auto;html=1;" edge="1" parent="WIyWlLk6GJQsqaUBKTNV-1" source="WIyWlLk6GJQsqaUBKTNV-3" target="wFdVTvilnbb7n3oCbcBA-6">
          <mxGeometry relative="1" as="geometry" />
        </mxCell>
        <mxCell id="wFdVTvilnbb7n3oCbcBA-92" style="edgeStyle=orthogonalEdgeStyle;rounded=0;orthogonalLoop=1;jettySize=auto;html=1;entryX=0.583;entryY=-0.05;entryDx=0;entryDy=0;entryPerimeter=0;" edge="1" parent="WIyWlLk6GJQsqaUBKTNV-1" source="WIyWlLk6GJQsqaUBKTNV-3" target="wFdVTvilnbb7n3oCbcBA-74">
          <mxGeometry relative="1" as="geometry" />
        </mxCell>
        <mxCell id="WIyWlLk6GJQsqaUBKTNV-3" value="Main" style="rounded=1;whiteSpace=wrap;html=1;fontSize=12;glass=0;strokeWidth=1;shadow=0;" parent="WIyWlLk6GJQsqaUBKTNV-1" vertex="1">
          <mxGeometry x="160" y="140" width="120" height="40" as="geometry" />
        </mxCell>
        <mxCell id="wFdVTvilnbb7n3oCbcBA-60" style="edgeStyle=orthogonalEdgeStyle;rounded=0;orthogonalLoop=1;jettySize=auto;html=1;entryX=0.5;entryY=0;entryDx=0;entryDy=0;" edge="1" parent="WIyWlLk6GJQsqaUBKTNV-1" source="wFdVTvilnbb7n3oCbcBA-2" target="wFdVTvilnbb7n3oCbcBA-58">
          <mxGeometry relative="1" as="geometry" />
        </mxCell>
        <mxCell id="wFdVTvilnbb7n3oCbcBA-2" value="자유게시판" style="rounded=1;whiteSpace=wrap;html=1;fontSize=12;glass=0;strokeWidth=1;shadow=0;" vertex="1" parent="WIyWlLk6GJQsqaUBKTNV-1">
          <mxGeometry x="160" y="210" width="120" height="40" as="geometry" />
        </mxCell>
        <mxCell id="wFdVTvilnbb7n3oCbcBA-59" style="edgeStyle=orthogonalEdgeStyle;rounded=0;orthogonalLoop=1;jettySize=auto;html=1;" edge="1" parent="WIyWlLk6GJQsqaUBKTNV-1" source="wFdVTvilnbb7n3oCbcBA-4" target="wFdVTvilnbb7n3oCbcBA-58">
          <mxGeometry relative="1" as="geometry" />
        </mxCell>
        <mxCell id="wFdVTvilnbb7n3oCbcBA-4" value="NEWS" style="rounded=1;whiteSpace=wrap;html=1;fontSize=12;glass=0;strokeWidth=1;shadow=0;" vertex="1" parent="WIyWlLk6GJQsqaUBKTNV-1">
          <mxGeometry x="290" y="210" width="120" height="40" as="geometry" />
        </mxCell>
        <mxCell id="wFdVTvilnbb7n3oCbcBA-22" value="" style="edgeStyle=orthogonalEdgeStyle;rounded=0;orthogonalLoop=1;jettySize=auto;html=1;" edge="1" parent="WIyWlLk6GJQsqaUBKTNV-1" source="wFdVTvilnbb7n3oCbcBA-6" target="wFdVTvilnbb7n3oCbcBA-21">
          <mxGeometry relative="1" as="geometry" />
        </mxCell>
        <mxCell id="wFdVTvilnbb7n3oCbcBA-6" value="로그인" style="rounded=1;whiteSpace=wrap;html=1;fontSize=12;glass=0;strokeWidth=1;shadow=0;" vertex="1" parent="WIyWlLk6GJQsqaUBKTNV-1">
          <mxGeometry x="450" y="210" width="120" height="40" as="geometry" />
        </mxCell>
        <mxCell id="wFdVTvilnbb7n3oCbcBA-47" value="N" style="edgeStyle=orthogonalEdgeStyle;rounded=0;orthogonalLoop=1;jettySize=auto;html=1;entryX=0;entryY=0.5;entryDx=0;entryDy=0;" edge="1" parent="WIyWlLk6GJQsqaUBKTNV-1" source="wFdVTvilnbb7n3oCbcBA-21" target="wFdVTvilnbb7n3oCbcBA-6">
          <mxGeometry relative="1" as="geometry">
            <mxPoint x="350" y="230" as="targetPoint" />
            <Array as="points">
              <mxPoint x="430" y="310" />
              <mxPoint x="430" y="230" />
            </Array>
          </mxGeometry>
        </mxCell>
        <mxCell id="wFdVTvilnbb7n3oCbcBA-48" value="Y" style="edgeStyle=orthogonalEdgeStyle;rounded=0;orthogonalLoop=1;jettySize=auto;html=1;entryX=0.5;entryY=0;entryDx=0;entryDy=0;exitX=0.5;exitY=1;exitDx=0;exitDy=0;" edge="1" parent="WIyWlLk6GJQsqaUBKTNV-1" source="wFdVTvilnbb7n3oCbcBA-21" target="wFdVTvilnbb7n3oCbcBA-23">
          <mxGeometry relative="1" as="geometry">
            <mxPoint x="560" y="395" as="targetPoint" />
          </mxGeometry>
        </mxCell>
        <mxCell id="wFdVTvilnbb7n3oCbcBA-21" value="성공&lt;br&gt;Y/N" style="rhombus;whiteSpace=wrap;html=1;rounded=1;glass=0;strokeWidth=1;shadow=0;" vertex="1" parent="WIyWlLk6GJQsqaUBKTNV-1">
          <mxGeometry x="470" y="270" width="80" height="80" as="geometry" />
        </mxCell>
        <mxCell id="wFdVTvilnbb7n3oCbcBA-72" style="edgeStyle=orthogonalEdgeStyle;rounded=0;orthogonalLoop=1;jettySize=auto;html=1;entryX=0.5;entryY=1;entryDx=0;entryDy=0;" edge="1" parent="WIyWlLk6GJQsqaUBKTNV-1" source="wFdVTvilnbb7n3oCbcBA-23" target="wFdVTvilnbb7n3oCbcBA-62">
          <mxGeometry relative="1" as="geometry">
            <Array as="points">
              <mxPoint x="510" y="680" />
              <mxPoint x="280" y="680" />
            </Array>
          </mxGeometry>
        </mxCell>
        <mxCell id="wFdVTvilnbb7n3oCbcBA-73" style="edgeStyle=orthogonalEdgeStyle;rounded=0;orthogonalLoop=1;jettySize=auto;html=1;entryX=0.5;entryY=1;entryDx=0;entryDy=0;exitX=0.5;exitY=1;exitDx=0;exitDy=0;" edge="1" parent="WIyWlLk6GJQsqaUBKTNV-1" source="wFdVTvilnbb7n3oCbcBA-23" target="wFdVTvilnbb7n3oCbcBA-66">
          <mxGeometry relative="1" as="geometry">
            <Array as="points">
              <mxPoint x="510" y="680" />
              <mxPoint x="390" y="680" />
              <mxPoint x="390" y="750" />
              <mxPoint x="150" y="750" />
            </Array>
          </mxGeometry>
        </mxCell>
        <mxCell id="wFdVTvilnbb7n3oCbcBA-23" value="세션 획득" style="rounded=1;whiteSpace=wrap;html=1;glass=0;strokeWidth=1;shadow=0;" vertex="1" parent="WIyWlLk6GJQsqaUBKTNV-1">
          <mxGeometry x="460" y="395" width="100" height="50" as="geometry" />
        </mxCell>
        <mxCell id="wFdVTvilnbb7n3oCbcBA-70" style="edgeStyle=orthogonalEdgeStyle;rounded=0;orthogonalLoop=1;jettySize=auto;html=1;entryX=0.25;entryY=0;entryDx=0;entryDy=0;" edge="1" parent="WIyWlLk6GJQsqaUBKTNV-1" source="wFdVTvilnbb7n3oCbcBA-44" target="wFdVTvilnbb7n3oCbcBA-66">
          <mxGeometry relative="1" as="geometry">
            <Array as="points">
              <mxPoint x="150" y="490" />
            </Array>
          </mxGeometry>
        </mxCell>
        <mxCell id="wFdVTvilnbb7n3oCbcBA-44" value="댓글 열람" style="whiteSpace=wrap;html=1;" vertex="1" parent="WIyWlLk6GJQsqaUBKTNV-1">
          <mxGeometry x="100" y="390" width="100" height="60" as="geometry" />
        </mxCell>
        <mxCell id="wFdVTvilnbb7n3oCbcBA-64" style="edgeStyle=orthogonalEdgeStyle;rounded=0;orthogonalLoop=1;jettySize=auto;html=1;" edge="1" parent="WIyWlLk6GJQsqaUBKTNV-1" source="wFdVTvilnbb7n3oCbcBA-58" target="wFdVTvilnbb7n3oCbcBA-14">
          <mxGeometry relative="1" as="geometry" />
        </mxCell>
        <mxCell id="wFdVTvilnbb7n3oCbcBA-58" value="게시물 조회" style="whiteSpace=wrap;html=1;" vertex="1" parent="WIyWlLk6GJQsqaUBKTNV-1">
          <mxGeometry x="230" y="310" width="100" height="60" as="geometry" />
        </mxCell>
        <mxCell id="wFdVTvilnbb7n3oCbcBA-62" value="게시물 관리" style="swimlane;" vertex="1" parent="WIyWlLk6GJQsqaUBKTNV-1">
          <mxGeometry x="220" y="490" width="120" height="170" as="geometry" />
        </mxCell>
        <mxCell id="wFdVTvilnbb7n3oCbcBA-19" value="게시물 작성" style="whiteSpace=wrap;html=1;" vertex="1" parent="wFdVTvilnbb7n3oCbcBA-62">
          <mxGeometry x="10" y="30" width="100" height="60" as="geometry" />
        </mxCell>
        <mxCell id="wFdVTvilnbb7n3oCbcBA-20" value="게시물 수정 / 삭제" style="whiteSpace=wrap;html=1;" vertex="1" parent="wFdVTvilnbb7n3oCbcBA-62">
          <mxGeometry x="10" y="100" width="100" height="60" as="geometry" />
        </mxCell>
        <mxCell id="wFdVTvilnbb7n3oCbcBA-65" style="edgeStyle=orthogonalEdgeStyle;rounded=0;orthogonalLoop=1;jettySize=auto;html=1;entryX=1;entryY=0.5;entryDx=0;entryDy=0;" edge="1" parent="WIyWlLk6GJQsqaUBKTNV-1" source="wFdVTvilnbb7n3oCbcBA-14" target="wFdVTvilnbb7n3oCbcBA-44">
          <mxGeometry relative="1" as="geometry" />
        </mxCell>
        <mxCell id="wFdVTvilnbb7n3oCbcBA-71" style="edgeStyle=orthogonalEdgeStyle;rounded=0;orthogonalLoop=1;jettySize=auto;html=1;" edge="1" parent="WIyWlLk6GJQsqaUBKTNV-1" source="wFdVTvilnbb7n3oCbcBA-14">
          <mxGeometry relative="1" as="geometry">
            <mxPoint x="280" y="490" as="targetPoint" />
          </mxGeometry>
        </mxCell>
        <mxCell id="wFdVTvilnbb7n3oCbcBA-14" value="게시물 열람" style="whiteSpace=wrap;html=1;" vertex="1" parent="WIyWlLk6GJQsqaUBKTNV-1">
          <mxGeometry x="230" y="390" width="100" height="60" as="geometry" />
        </mxCell>
        <mxCell id="wFdVTvilnbb7n3oCbcBA-66" value="댓글 관리" style="swimlane;" vertex="1" parent="WIyWlLk6GJQsqaUBKTNV-1">
          <mxGeometry x="90" y="490" width="120" height="240" as="geometry">
            <mxRectangle x="90" y="490" width="80" height="23" as="alternateBounds" />
          </mxGeometry>
        </mxCell>
        <mxCell id="wFdVTvilnbb7n3oCbcBA-41" value="댓글 삭제" style="whiteSpace=wrap;html=1;" vertex="1" parent="wFdVTvilnbb7n3oCbcBA-66">
          <mxGeometry x="10" y="170" width="100" height="60" as="geometry" />
        </mxCell>
        <mxCell id="wFdVTvilnbb7n3oCbcBA-40" value="댓글 수정" style="whiteSpace=wrap;html=1;" vertex="1" parent="wFdVTvilnbb7n3oCbcBA-66">
          <mxGeometry x="10" y="100" width="100" height="60" as="geometry" />
        </mxCell>
        <mxCell id="wFdVTvilnbb7n3oCbcBA-43" value="댓글 작성" style="whiteSpace=wrap;html=1;" vertex="1" parent="wFdVTvilnbb7n3oCbcBA-66">
          <mxGeometry x="10" y="30" width="100" height="60" as="geometry" />
        </mxCell>
        <mxCell id="wFdVTvilnbb7n3oCbcBA-81" style="edgeStyle=orthogonalEdgeStyle;rounded=0;orthogonalLoop=1;jettySize=auto;html=1;entryX=0.5;entryY=0;entryDx=0;entryDy=0;" edge="1" parent="WIyWlLk6GJQsqaUBKTNV-1" source="wFdVTvilnbb7n3oCbcBA-74" target="wFdVTvilnbb7n3oCbcBA-80">
          <mxGeometry relative="1" as="geometry" />
        </mxCell>
        <mxCell id="wFdVTvilnbb7n3oCbcBA-74" value="회원가입" style="rounded=1;whiteSpace=wrap;html=1;fontSize=12;glass=0;strokeWidth=1;shadow=0;" vertex="1" parent="WIyWlLk6GJQsqaUBKTNV-1">
          <mxGeometry x="680" y="210" width="120" height="40" as="geometry" />
        </mxCell>
        <mxCell id="wFdVTvilnbb7n3oCbcBA-79" value="Check" style="edgeStyle=orthogonalEdgeStyle;rounded=0;orthogonalLoop=1;jettySize=auto;html=1;" edge="1" parent="WIyWlLk6GJQsqaUBKTNV-1" source="wFdVTvilnbb7n3oCbcBA-77" target="wFdVTvilnbb7n3oCbcBA-21">
          <mxGeometry relative="1" as="geometry" />
        </mxCell>
        <mxCell id="wFdVTvilnbb7n3oCbcBA-77" value="회원 DB" style="ellipse;whiteSpace=wrap;html=1;rounded=1;glass=0;strokeWidth=1;shadow=0;" vertex="1" parent="WIyWlLk6GJQsqaUBKTNV-1">
          <mxGeometry x="590" y="290" width="70" height="40" as="geometry" />
        </mxCell>
        <mxCell id="wFdVTvilnbb7n3oCbcBA-87" value="Y" style="edgeStyle=orthogonalEdgeStyle;rounded=0;orthogonalLoop=1;jettySize=auto;html=1;entryX=1;entryY=0.5;entryDx=0;entryDy=0;" edge="1" parent="WIyWlLk6GJQsqaUBKTNV-1" source="wFdVTvilnbb7n3oCbcBA-80" target="wFdVTvilnbb7n3oCbcBA-88">
          <mxGeometry relative="1" as="geometry">
            <mxPoint x="680" y="420" as="targetPoint" />
          </mxGeometry>
        </mxCell>
        <mxCell id="wFdVTvilnbb7n3oCbcBA-90" style="edgeStyle=orthogonalEdgeStyle;rounded=0;orthogonalLoop=1;jettySize=auto;html=1;entryX=1;entryY=0.5;entryDx=0;entryDy=0;exitX=1;exitY=0.5;exitDx=0;exitDy=0;" edge="1" parent="WIyWlLk6GJQsqaUBKTNV-1" source="wFdVTvilnbb7n3oCbcBA-80" target="wFdVTvilnbb7n3oCbcBA-74">
          <mxGeometry relative="1" as="geometry">
            <Array as="points">
              <mxPoint x="820" y="420" />
              <mxPoint x="820" y="230" />
            </Array>
          </mxGeometry>
        </mxCell>
        <mxCell id="wFdVTvilnbb7n3oCbcBA-80" value="성공&lt;br&gt;Y/N" style="rhombus;whiteSpace=wrap;html=1;rounded=1;glass=0;strokeWidth=1;shadow=0;" vertex="1" parent="WIyWlLk6GJQsqaUBKTNV-1">
          <mxGeometry x="700" y="380" width="80" height="80" as="geometry" />
        </mxCell>
        <mxCell id="wFdVTvilnbb7n3oCbcBA-89" style="edgeStyle=orthogonalEdgeStyle;rounded=0;orthogonalLoop=1;jettySize=auto;html=1;entryX=0.5;entryY=1;entryDx=0;entryDy=0;" edge="1" parent="WIyWlLk6GJQsqaUBKTNV-1" source="wFdVTvilnbb7n3oCbcBA-88" target="wFdVTvilnbb7n3oCbcBA-77">
          <mxGeometry relative="1" as="geometry" />
        </mxCell>
        <mxCell id="wFdVTvilnbb7n3oCbcBA-88" value="회원 추가" style="rounded=1;whiteSpace=wrap;html=1;glass=0;strokeWidth=1;shadow=0;" vertex="1" parent="WIyWlLk6GJQsqaUBKTNV-1">
          <mxGeometry x="575" y="395" width="100" height="50" as="geometry" />
        </mxCell>
      </root>
    </mxGraphModel>
  </diagram>
</mxfile>
